<mxfile host="app.diagrams.net" agent="Mozilla/5.0 (Windows NT 10.0; Win64; x64) AppleWebKit/537.36 (KHTML, like Gecko) Chrome/128.0.0.0 Safari/537.36" version="24.7.10">
  <diagram name="Page-1" id="coNRcPZzEZksASklCdoz">
    <mxGraphModel dx="1050" dy="522" grid="1" gridSize="10" guides="1" tooltips="1" connect="1" arrows="1" fold="1" page="1" pageScale="1" pageWidth="827" pageHeight="1169" math="0" shadow="0">
      <root>
        <mxCell id="0" />
        <mxCell id="1" parent="0" />
        <mxCell id="Au_S4vGKViVq8frkckDu-6" value="" style="shape=actor;whiteSpace=wrap;html=1;" parent="1" vertex="1">
          <mxGeometry x="64" y="50" width="70" height="80" as="geometry" />
        </mxCell>
        <mxCell id="Au_S4vGKViVq8frkckDu-7" value="Add&amp;nbsp;&lt;span style=&quot;background-color: initial;&quot;&gt;Seller&lt;/span&gt;&lt;div&gt;&lt;div&gt;&lt;br&gt;&lt;/div&gt;&lt;/div&gt;" style="text;html=1;align=center;verticalAlign=middle;resizable=0;points=[];autosize=1;strokeColor=none;fillColor=none;" parent="1" vertex="1">
          <mxGeometry x="64" y="142" width="80" height="40" as="geometry" />
        </mxCell>
        <mxCell id="Au_S4vGKViVq8frkckDu-8" value="" style="shape=singleArrow;whiteSpace=wrap;html=1;" parent="1" vertex="1">
          <mxGeometry x="169" y="71" width="75" height="20" as="geometry" />
        </mxCell>
        <mxCell id="Au_S4vGKViVq8frkckDu-10" value="Fetch Key Individuals" style="text;html=1;align=center;verticalAlign=middle;resizable=0;points=[];autosize=1;strokeColor=none;fillColor=none;" parent="1" vertex="1">
          <mxGeometry x="304" y="66" width="140" height="30" as="geometry" />
        </mxCell>
        <mxCell id="Au_S4vGKViVq8frkckDu-11" value="" style="endArrow=classic;html=1;rounded=0;" parent="1" edge="1">
          <mxGeometry width="50" height="50" relative="1" as="geometry">
            <mxPoint x="344" y="110" as="sourcePoint" />
            <mxPoint x="274" y="200" as="targetPoint" />
          </mxGeometry>
        </mxCell>
        <mxCell id="Au_S4vGKViVq8frkckDu-12" value="" style="endArrow=classic;html=1;rounded=0;" parent="1" edge="1">
          <mxGeometry width="50" height="50" relative="1" as="geometry">
            <mxPoint x="371" y="110" as="sourcePoint" />
            <mxPoint x="371" y="200" as="targetPoint" />
          </mxGeometry>
        </mxCell>
        <mxCell id="Au_S4vGKViVq8frkckDu-13" value="" style="endArrow=classic;html=1;rounded=0;" parent="1" edge="1">
          <mxGeometry width="50" height="50" relative="1" as="geometry">
            <mxPoint x="401" y="110" as="sourcePoint" />
            <mxPoint x="474" y="200" as="targetPoint" />
          </mxGeometry>
        </mxCell>
        <mxCell id="Au_S4vGKViVq8frkckDu-14" value="John D." style="text;html=1;align=center;verticalAlign=middle;resizable=0;points=[];autosize=1;strokeColor=none;fillColor=none;" parent="1" vertex="1">
          <mxGeometry x="234" y="208" width="60" height="30" as="geometry" />
        </mxCell>
        <mxCell id="Au_S4vGKViVq8frkckDu-15" value="Elon M." style="text;html=1;align=center;verticalAlign=middle;resizable=0;points=[];autosize=1;strokeColor=none;fillColor=none;" parent="1" vertex="1">
          <mxGeometry x="344" y="208" width="60" height="30" as="geometry" />
        </mxCell>
        <mxCell id="Au_S4vGKViVq8frkckDu-16" value="Mark J." style="text;html=1;align=center;verticalAlign=middle;resizable=0;points=[];autosize=1;strokeColor=none;fillColor=none;" parent="1" vertex="1">
          <mxGeometry x="444" y="208" width="60" height="30" as="geometry" />
        </mxCell>
        <mxCell id="Au_S4vGKViVq8frkckDu-17" value="" style="shape=singleArrow;whiteSpace=wrap;html=1;" parent="1" vertex="1">
          <mxGeometry x="504" y="71" width="75" height="20" as="geometry" />
        </mxCell>
        <mxCell id="Au_S4vGKViVq8frkckDu-23" value="" style="shape=image;verticalLabelPosition=bottom;verticalAlign=top;imageAspect=0;image=https://quickchart.io/qr?text=BarcodesInc&amp;size=200;" parent="1" vertex="1">
          <mxGeometry x="644" y="40" width="90" height="90" as="geometry" />
        </mxCell>
        <mxCell id="Au_S4vGKViVq8frkckDu-24" value="Fetch QR VPA" style="text;html=1;align=center;verticalAlign=middle;resizable=0;points=[];autosize=1;strokeColor=none;fillColor=none;" parent="1" vertex="1">
          <mxGeometry x="644" y="139" width="100" height="30" as="geometry" />
        </mxCell>
        <mxCell id="Au_S4vGKViVq8frkckDu-30" value="" style="rounded=0;whiteSpace=wrap;html=1;" parent="1" vertex="1">
          <mxGeometry x="43" y="330" width="120" height="30" as="geometry" />
        </mxCell>
        <mxCell id="Au_S4vGKViVq8frkckDu-27" value="Create Seller User" style="text;html=1;align=center;verticalAlign=middle;resizable=0;points=[];autosize=1;strokeColor=none;fillColor=none;" parent="1" vertex="1">
          <mxGeometry x="43" y="330" width="120" height="30" as="geometry" />
        </mxCell>
        <mxCell id="Au_S4vGKViVq8frkckDu-28" value="" style="shape=singleArrow;whiteSpace=wrap;html=1;rotation=90;" parent="1" vertex="1">
          <mxGeometry x="67.63" y="219.38" width="69.5" height="26.75" as="geometry" />
        </mxCell>
        <mxCell id="Au_S4vGKViVq8frkckDu-39" value="" style="rounded=0;whiteSpace=wrap;html=1;fillColor=none;" parent="1" vertex="1">
          <mxGeometry x="224" y="203" width="310" height="40" as="geometry" />
        </mxCell>
        <mxCell id="Au_S4vGKViVq8frkckDu-38" value="" style="shape=singleArrow;whiteSpace=wrap;html=1;" parent="1" vertex="1">
          <mxGeometry x="182" y="335" width="75" height="20" as="geometry" />
        </mxCell>
        <mxCell id="Au_S4vGKViVq8frkckDu-40" value="" style="shape=singleArrow;whiteSpace=wrap;html=1;" parent="1" vertex="1">
          <mxGeometry x="564" y="213" width="56" height="20" as="geometry" />
        </mxCell>
        <mxCell id="Au_S4vGKViVq8frkckDu-41" value="Complete Onboard" style="text;html=1;align=center;verticalAlign=middle;resizable=0;points=[];autosize=1;strokeColor=none;fillColor=none;" parent="1" vertex="1">
          <mxGeometry x="624" y="208" width="120" height="30" as="geometry" />
        </mxCell>
        <mxCell id="Au_S4vGKViVq8frkckDu-42" value="" style="shape=actor;whiteSpace=wrap;html=1;" parent="1" vertex="1">
          <mxGeometry x="294" y="310" width="40" height="50" as="geometry" />
        </mxCell>
        <mxCell id="Au_S4vGKViVq8frkckDu-43" value="" style="shape=actor;whiteSpace=wrap;html=1;" parent="1" vertex="1">
          <mxGeometry x="364" y="310" width="40" height="50" as="geometry" />
        </mxCell>
        <mxCell id="Au_S4vGKViVq8frkckDu-44" value="" style="shape=actor;whiteSpace=wrap;html=1;" parent="1" vertex="1">
          <mxGeometry x="434" y="310" width="40" height="50" as="geometry" />
        </mxCell>
        <mxCell id="Au_S4vGKViVq8frkckDu-45" value="" style="shape=actor;whiteSpace=wrap;html=1;" parent="1" vertex="1">
          <mxGeometry x="507" y="310" width="40" height="50" as="geometry" />
        </mxCell>
        <mxCell id="Au_S4vGKViVq8frkckDu-46" value="" style="shape=actor;whiteSpace=wrap;html=1;" parent="1" vertex="1">
          <mxGeometry x="583" y="310" width="40" height="50" as="geometry" />
        </mxCell>
        <mxCell id="Au_S4vGKViVq8frkckDu-47" value="" style="shape=actor;whiteSpace=wrap;html=1;" parent="1" vertex="1">
          <mxGeometry x="658" y="310" width="40" height="50" as="geometry" />
        </mxCell>
      </root>
    </mxGraphModel>
  </diagram>
</mxfile>
